# xmcd
#
# Track frame offsets: 
#        150
#        16554
#        33186
#        47701
#        67167
#        86006
#        100847
#        112381
#        123591
#        137803
#        150482
#        167825
#        180939
#        197314
#        210503
#        223895
#        240182
#        255620
#        271269
#        290635
#        310105
#
# Disc length: 4334 seconds
#
# Revision: 0
# Processed by: cddbd v1.5.2PL0 Copyright (c) Steve Scherf et al.
# Submitted via: ExactAudioCopy v1.0b4
#
DISCID=2410ec15
DTITLE=Mink DeVille - Collected D1
DYEAR=2015
DGENRE=Blues
TTITLE0=Spanish Stroll
TTITLE1=Mixed Up, Shook Up Girl
TTITLE2=Cadillac Walk
TTITLE3=Little Girl
TTITLE4=Just Your Friends
TTITLE5=Guardian Angel
TTITLE6=Soul Twist
TTITLE7=Mazurka
TTITLE8=Savoir Faire
TTITLE9=This Must Be The Night
TTITLE10=Just To Walk That Little Girl Home
TTITLE11=Heaven Stood Still
TTITLE12=Love And Emotion
TTITLE13=Maybe Tomorrow
TTITLE14=You Better Move On
TTITLE15=Demasiado Corazon
TTITLE16=Each Word Is A Beat Of My Heart
TTITLE17=Stand By Me
TTITLE18=Italian Shoes
TTITLE19=I Must Be Dreaming
TTITLE20=In The Heart Of The City
EXTD=
EXTT0=
EXTT1=
EXTT2=
EXTT3=
EXTT4=
EXTT5=
EXTT6=
EXTT7=
EXTT8=
EXTT9=
EXTT10=
EXTT11=
EXTT12=
EXTT13=
EXTT14=
EXTT15=
EXTT16=
EXTT17=
EXTT18=
EXTT19=
EXTT20=
PLAYORDER=
